<?xml version="1.0" standalone="no"?>
<!DOCTYPE svg PUBLIC "-//W3C//DTD SVG 20010904//EN"
 "http://www.w3.org/TR/2001/REC-SVG-20010904/DTD/svg10.dtd">
<svg version="1.0" xmlns="http://www.w3.org/2000/svg"
 width="260.000000pt" height="260.000000pt" viewBox="0 0 260.000000 260.000000"
 preserveAspectRatio="xMidYMid meet">
<metadata>
Created by potrace 1.11, written by Peter Selinger 2001-2013
</metadata>
<g transform="translate(0.000000,260.000000) scale(0.100000,-0.100000)"
fill="#000000" stroke="none">
<path d="M648 1947 l652 -652 326 326 327 327 253 -251 c140 -138 252 -252
250 -255 -8 -8 28 -41 38 -35 6 3 8 3 4 -1 -6 -7 84 -106 97 -106 3 0 5 293 5
650 l0 650 -1302 0 -1303 0 653 -653z"/>
<path d="M0 1300 l0 -1285 639 639 c351 351 641 634 644 629 7 -12 -606 -626
-616 -617 -4 4 -7 1 -7 -7 0 -8 -145 -159 -322 -336 l-323 -323 635 0 635 0
324 324 c179 179 329 322 334 319 5 -3 -132 -147 -304 -319 -172 -172 -317
-310 -322 -307 -6 3 -7 1 -3 -5 5 -9 174 -12 647 -12 l639 0 0 637 0 638 -92
94 c-51 52 -84 88 -73 80 18 -13 19 -13 6 4 -7 9 -20 17 -28 17 -8 0 -11 5 -8
10 3 6 2 10 -3 10 -5 0 -108 100 -230 223 l-222 222 -317 -318 -318 -317 317
-317 318 -318 313 313 c172 172 316 309 320 305 4 -4 -132 -147 -304 -319
-275 -275 -314 -311 -335 -305 -14 3 -446 427 -984 966 l-960 960 0 -1285z"/>
</g>
</svg>
